<svg xmlns="http://www.w3.org/2000/svg" xmlns:xlink="http://www.w3.org/1999/xlink" width="90" height="105" viewBox="0 0 90 105">
  <defs>
    <clipPath id="clip-path">
      <rect id="Rectangle_14" data-name="Rectangle 14" width="90" height="105" transform="translate(195 135)" fill="#fff" stroke="#707070" stroke-width="1"/>
    </clipPath>
  </defs>
  <g id="Mask_Group_3" data-name="Mask Group 3" transform="translate(-195 -135)" clip-path="url(#clip-path)">
    <g id="Page-1" transform="translate(195 142.5)">
      <g id="siteship_landing" transform="translate(-265.179 -69.107)">
        <g id="hero-_-domain" data-name="hero-+-domain">
          <g id="logo" transform="translate(265.179 69.107)">
            <circle id="Oval" cx="45" cy="45" r="45" fill="#202bff" stroke="#707070" stroke-width="1.607"/>
            <g id="Group-46" transform="translate(19.286 25.714)">
              <path id="Fill-496" d="M34.826,12.375a1.1,1.1,0,0,1-.552-2.042L47.251,3.627H19.019L2.32,12.259A1.158,1.158,0,0,1,.8,11.794a1.146,1.146,0,0,1,.518-1.461L18.283,1.568a1.706,1.706,0,0,1,.444-.082H51.788a1.137,1.137,0,0,1,1.063.812,1.129,1.129,0,0,1-.617,1.22L35.272,12.259a.619.619,0,0,1-.446.116" fill="#fff" stroke="#707070" stroke-width="1.607" fill-rule="evenodd"/>
              <path id="Fill-497" d="M9.118,12.375H1.765a1.091,1.091,0,0,1,0-2.174H9.118a1.087,1.087,0,1,1,0,2.174" fill="#fff" stroke="#707070" stroke-width="1.607" fill-rule="evenodd"/>
              <path id="Fill-498" d="M43.254,3.626H26.777a1.124,1.124,0,0,1-1.1-1.092,1.115,1.115,0,0,1,1.1-1.046H43.254a1.044,1.044,0,0,1,1.1,1.046,1.056,1.056,0,0,1-1.1,1.092" fill="#fff" stroke="#707070" stroke-width="1.607" fill-rule="evenodd"/>
              <path id="Fill-499" d="M34.826,17.923H26.28a1.056,1.056,0,0,1-1.094-1.1,1.045,1.045,0,0,1,1.094-1.044h8.254l16.7-8.633a1.156,1.156,0,0,1,1.516.465,1.114,1.114,0,0,1-.518,1.461L35.272,17.79a.624.624,0,0,1-.446.133" fill="#fff" stroke="#707070" stroke-width="1.607" fill-rule="evenodd"/>
              <path id="Fill-500" d="M10.215,17.923H1.765a1.043,1.043,0,0,1-1-1.1,1.029,1.029,0,0,1,1-1.044h8.45a1.071,1.071,0,1,1,0,2.141" fill="#fff" stroke="#707070" stroke-width="1.607" fill-rule="evenodd"/>
              <path id="Fill-501" d="M34.826,23.454a.953.953,0,0,1-.962-.545,1.044,1.044,0,0,1,.41-1.432l16.962-8.744a1.1,1.1,0,0,1,1.516.465,1.132,1.132,0,0,1-.518,1.461L35.272,23.428a2.754,2.754,0,0,1-.446.026" fill="#fff" stroke="#707070" stroke-width="1.607" fill-rule="evenodd"/>
              <path id="Fill-502" d="M10.215,23.454H1.765a.985.985,0,0,1-1-1,1.007,1.007,0,0,1,1-1.087h8.45a1.086,1.086,0,0,1,1.1,1.087,1.072,1.072,0,0,1-1.1,1" fill="#fff" stroke="#707070" stroke-width="1.607" fill-rule="evenodd"/>
              <path id="Fill-503" d="M34.623,23.454H26.28a1.006,1.006,0,0,1-1.094-1,1.024,1.024,0,0,1,1.094-1.087h8.343a1.074,1.074,0,0,1,1.1,1.087,1.06,1.06,0,0,1-1.1,1" fill="#fff" stroke="#707070" stroke-width="1.607" fill-rule="evenodd"/>
              <path id="Fill-504" d="M34.826,29.088a1.048,1.048,0,0,1-.962-.653,1.033,1.033,0,0,1,.41-1.405L51.238,18.28a1.1,1.1,0,1,1,.993,1.96L35.269,28.953a.607.607,0,0,1-.443.135" fill="#fff" stroke="#707070" stroke-width="1.607" fill-rule="evenodd"/>
              <path id="Fill-505" d="M10.215,29.088H1.765a1.079,1.079,0,0,1-1-1.1,1.045,1.045,0,0,1,1-1.1h8.45a1.127,1.127,0,0,1,1.1,1.1,1.166,1.166,0,0,1-1.1,1.1" fill="#fff" stroke="#707070" stroke-width="1.607" fill-rule="evenodd"/>
              <path id="Fill-506" d="M34.623,29.088H26.28a1.089,1.089,0,0,1-1.094-1.1,1.058,1.058,0,0,1,1.094-1.1h8.343a1.114,1.114,0,0,1,1.1,1.1,1.151,1.151,0,0,1-1.1,1.1" fill="#fff" stroke="#707070" stroke-width="1.607" fill-rule="evenodd"/>
              <path id="Fill-507" d="M34.826,34.62a1.151,1.151,0,0,1-.962-.545,1.133,1.133,0,0,1,.41-1.514l16.962-8.715a1.085,1.085,0,1,1,1,1.926L35.272,34.485a.617.617,0,0,1-.446.135" fill="#fff" stroke="#707070" stroke-width="1.607" fill-rule="evenodd"/>
              <path id="Fill-508" d="M10.215,34.62H1.765a1.012,1.012,0,0,1-1-1.1,1.078,1.078,0,0,1,1-1.1h8.45a1.164,1.164,0,0,1,1.1,1.1,1.089,1.089,0,0,1-1.1,1.1" fill="#fff" stroke="#707070" stroke-width="1.607" fill-rule="evenodd"/>
              <path id="Fill-509" d="M34.623,34.62H26.28a1.028,1.028,0,0,1-1.094-1.1,1.087,1.087,0,0,1,1.094-1.1h8.343a1.15,1.15,0,0,1,1.1,1.1,1.078,1.078,0,0,1-1.1,1.1" fill="#fff" stroke="#707070" stroke-width="1.607" fill-rule="evenodd"/>
              <path id="Fill-510" d="M26.28,36.381H10.215a1.064,1.064,0,0,1-1.1-1.1V11.3a1.1,1.1,0,0,1,1.1-1.1,1.125,1.125,0,0,1,1.1,1.1V34.264H25.186V11.3a1.056,1.056,0,0,1,1.094-1.1,1.082,1.082,0,0,1,1.049,1.1V35.284a1.049,1.049,0,0,1-1.049,1.1" fill="#fff" stroke="#707070" stroke-width="1.607" fill-rule="evenodd"/>
              <path id="Fill-511" d="M34.473,12.375H27.226a1.087,1.087,0,1,1,0-2.174h7.247a1.087,1.087,0,1,1,0,2.174" fill="#fff" stroke="#707070" stroke-width="1.607" fill-rule="evenodd"/>
              <path id="Fill-512" d="M34.473,12.375H27.226a1.087,1.087,0,1,1,0-2.174h7.247a1.087,1.087,0,1,1,0,2.174" fill="#fff" stroke="#707070" stroke-width="1.607" fill-rule="evenodd"/>
              <path id="Fill-513" d="M22.275,30.5a7.83,7.83,0,1,1,0-15.66,1.1,1.1,0,0,1,0,2.194,5.666,5.666,0,1,0,0,11.33A1.11,1.11,0,0,1,23.37,29.4a1.087,1.087,0,0,1-1.094,1.1" fill="#fff" stroke="#707070" stroke-width="1.607" fill-rule="evenodd"/>
              <path id="Fill-514" d="M20.352,22.263H13.723a1.166,1.166,0,0,1-1.1-1.1,1.125,1.125,0,0,1,1.1-1.1h6.629a1.1,1.1,0,0,1,1.07,1.1,1.14,1.14,0,0,1-1.07,1.1" fill="#fff" stroke="#707070" stroke-width="1.607" fill-rule="evenodd"/>
              <path id="Fill-515" d="M20.352,25.366H13.723a1.166,1.166,0,0,1-1.1-1.1,1.089,1.089,0,0,1,1.1-1.1h6.629a1.066,1.066,0,0,1,1.07,1.1,1.14,1.14,0,0,1-1.07,1.1" fill="#fff" stroke="#707070" stroke-width="1.607" fill-rule="evenodd"/>
            </g>
          </g>
        </g>
      </g>
    </g>
  </g>
</svg>
